<?xml version="1.0" encoding="UTF-8"?>
<svg height="128px" viewBox="0 0 128 128" width="128px" xmlns="http://www.w3.org/2000/svg" xmlns:xlink="http://www.w3.org/1999/xlink">
    <radialGradient id="a" cx="64" cy="64" gradientUnits="userSpaceOnUse" r="50.625">
        <stop offset="0.895526" stop-color="#1a5fb4"/>
        <stop offset="1" stop-color="#62a0ea"/>
    </radialGradient>
    <linearGradient id="b" gradientUnits="userSpaceOnUse" x1="12" x2="92" y1="64" y2="64">
        <stop offset="0" stop-color="#bbc9da"/>
        <stop offset="0.698277" stop-color="#ceddef"/>
    </linearGradient>
    <linearGradient id="c" gradientUnits="userSpaceOnUse" x1="12" x2="24" y1="64" y2="64">
        <stop offset="0" stop-color="#5e5c64"/>
        <stop offset="1" stop-color="#77767b"/>
    </linearGradient>
    <radialGradient id="d" cx="49.875" cy="236" gradientTransform="matrix(1 0 0 1.408451 4.875 -96.394363)" gradientUnits="userSpaceOnUse" r="17.75">
        <stop offset="0" stop-color="#9141ac"/>
        <stop offset="1" stop-color="#813d9c"/>
    </radialGradient>
    <linearGradient id="e" gradientUnits="userSpaceOnUse" x1="71.495392" x2="36.522003" y1="236" y2="236">
        <stop offset="0" stop-color="#813d9c"/>
        <stop offset="1" stop-color="#613583"/>
    </linearGradient>
    <path d="m 22.503906 13.375 h 82.992188 c 5.042968 0 9.128906 4.085938 9.128906 9.128906 v 82.992188 c 0 5.042968 -4.085938 9.128906 -9.128906 9.128906 h -82.992188 c -5.042968 0 -9.128906 -4.085938 -9.128906 -9.128906 v -82.992188 c 0 -5.042968 4.085938 -9.128906 9.128906 -9.128906 z m 0 0" fill="url(#a)"/>
    <path d="m 122 64 c 0 27.613281 -22.386719 50 -50 50 s -50 -22.386719 -50 -50 s 22.386719 -50 50 -50 s 50 22.386719 50 50 z m 0 0" fill="#5e5c64"/>
    <path d="m 119.5 64 c 0 26.234375 -21.265625 47.5 -47.5 47.5 s -47.5 -21.265625 -47.5 -47.5 s 21.265625 -47.5 47.5 -47.5 s 47.5 21.265625 47.5 47.5 z m 0 0" fill="#3d3846"/>
    <path d="m 117 64 c 0 24.851562 -20.148438 45 -45 45 s -45 -20.148438 -45 -45 s 20.148438 -45 45 -45 s 45 20.148438 45 45 z m 0 0" fill="#5e5c64"/>
    <path d="m 114.5 64 c 0 23.472656 -19.027344 42.5 -42.5 42.5 s -42.5 -19.027344 -42.5 -42.5 s 19.027344 -42.5 42.5 -42.5 s 42.5 19.027344 42.5 42.5 z m 0 0" fill="#3d3846"/>
    <path d="m 112 64 c 0 22.089844 -17.910156 40 -40 40 s -40 -17.910156 -40 -40 s 17.910156 -40 40 -40 s 40 17.910156 40 40 z m 0 0" fill="#5e5c64"/>
    <path d="m 109.5 64 c 0 20.710938 -16.789062 37.5 -37.5 37.5 s -37.5 -16.789062 -37.5 -37.5 s 16.789062 -37.5 37.5 -37.5 s 37.5 16.789062 37.5 37.5 z m 0 0" fill="#3d3846"/>
    <path d="m 107 64 c 0 19.328125 -15.671875 35 -35 35 s -35 -15.671875 -35 -35 s 15.671875 -35 35 -35 s 35 15.671875 35 35 z m 0 0" fill="#5e5c64"/>
    <path d="m 104.5 64 c 0 17.949219 -14.550781 32.5 -32.5 32.5 s -32.5 -14.550781 -32.5 -32.5 s 14.550781 -32.5 32.5 -32.5 s 32.5 14.550781 32.5 32.5 z m 0 0" fill="#3d3846"/>
    <path d="m 102 64 c 0 16.570312 -13.429688 30 -30 30 s -30 -13.429688 -30 -30 s 13.429688 -30 30 -30 s 30 13.429688 30 30 z m 0 0" fill="#5e5c64"/>
    <path d="m 99.5 64 c 0 15.1875 -12.3125 27.5 -27.5 27.5 s -27.5 -12.3125 -27.5 -27.5 s 12.3125 -27.5 27.5 -27.5 s 27.5 12.3125 27.5 27.5 z m 0 0" fill="#3d3846"/>
    <path d="m 97 64 c 0 13.808594 -11.191406 25 -25 25 s -25 -11.191406 -25 -25 s 11.191406 -25 25 -25 s 25 11.191406 25 25 z m 0 0" fill="#5e5c64"/>
    <path d="m 94.5 64 c 0 12.425781 -10.074219 22.5 -22.5 22.5 s -22.5 -10.074219 -22.5 -22.5 s 10.074219 -22.5 22.5 -22.5 s 22.5 10.074219 22.5 22.5 z m 0 0" fill="#3d3846"/>
    <path d="m 24 12 v 104 h 58.625 c 5.195312 0 9.375 -4.179688 9.375 -9.375 v -30.625 c -5.332031 -1.554688 -9 -6.445312 -9 -12 s 3.667969 -10.445312 9 -12 v -30.625 c 0 -5.195312 -4.179688 -9.375 -9.375 -9.375 z m 0 0" fill="url(#b)"/>
    <path d="m 20.75 115.980469 v -103.960938 c -4.898438 0.320313 -8.75 4.371094 -8.75 9.355469 v 85.25 c 0 4.984375 3.851562 9.035156 8.75 9.355469 z m 0 0" fill="url(#c)"/>
    <path d="m 21.375 12 c -0.210938 0 -0.417969 0.007812 -0.625 0.019531 v 103.960938 c 0.207031 0.011719 0.414062 0.019531 0.625 0.019531 h 2.625 v -104 z m 0 0" fill="#5e5c64"/>
    <path d="m 62 211 c -13.808594 0 -25 11.191406 -25 25 s 11.191406 25 25 25 c 2.695312 0 5.367188 -0.4375 7.910156 -1.285156 c 1.460938 -0.488282 1.445313 -1.539063 0.132813 -2.335938 c -7.417969 -4.492187 -12.042969 -12.574218 -12.042969 -21.378906 c 0 -8.796875 4.617188 -16.871094 12.023438 -21.367188 c 1.324218 -0.804687 1.339843 -1.863281 -0.132813 -2.355468 c -2.539063 -0.84375 -5.203125 -1.277344 -7.890625 -1.277344 z m 0 0" fill="url(#d)" stroke="url(#e)" stroke-width="0.956" transform="matrix(1 0 0 1 0 -172)"/>
</svg>
