<?xml version="1.0" encoding="UTF-8"?>
<svg height="128px" viewBox="0 0 128 128" width="128px" xmlns="http://www.w3.org/2000/svg" xmlns:xlink="http://www.w3.org/1999/xlink">
    <filter id="a" height="100%" width="100%" x="0%" y="0%">
        <feColorMatrix color-interpolation-filters="sRGB" values="0 0 0 0 1 0 0 0 0 1 0 0 0 0 1 0 0 0 1 0"/>
    </filter>
    <linearGradient id="b" gradientUnits="userSpaceOnUse" x1="17.535685" x2="117.535685" y1="63.999675" y2="63.999675">
        <stop offset="0" stop-color="#1c71d8"/>
        <stop offset="0.998975" stop-color="#1a5fb4"/>
    </linearGradient>
    <linearGradient id="c" gradientUnits="userSpaceOnUse" x1="3.99999614849" x2="99.13398270651" y1="64.00001249396" y2="64.00001249396">
        <stop offset="0"/>
        <stop offset="0.670915" stop-color="#241f31"/>
    </linearGradient>
    <linearGradient id="d" gradientUnits="userSpaceOnUse" x1="41.49998337468" x2="66.61130816423" y1="63.99984552108" y2="63.99984552108">
        <stop offset="0" stop-color="#1c71d8"/>
        <stop offset="1" stop-color="#1a5fb4"/>
    </linearGradient>
    <clipPath id="e">
        <rect height="128" width="128"/>
    </clipPath>
    <clipPath id="f">
        <rect height="128" width="128"/>
    </clipPath>
    <mask id="g">
        <g filter="url(#a)">
            <g clip-path="url(#f)" filter="url(#a)">
                <g clip-path="url(#e)">
                    <path d="m 117.535156 64 c 0 27.613281 -22.386718 50 -50 50 c -27.613281 0 -50 -22.386719 -50 -50 s 22.386719 -50 50 -50 c 27.613282 0 50 22.386719 50 50 z m 0 0" fill="url(#b)"/>
                    <path d="m 110.003906 37.609375 l -7.148437 4.128906 l -39.429688 22.761719 l 39.429688 22.761719 l 6.683593 3.859375 c 5.21875 -8.082032 7.996094 -17.5 7.996094 -27.121094 c 0 -9.328125 -2.609375 -18.46875 -7.53125 -26.390625 z m 0 0" fill="#62a0ea" fill-opacity="0.301961"/>
                    <path d="m 74 64 c 0 6.074219 -4.925781 11 -11 11 s -11 -4.925781 -11 -11 s 4.925781 -11 11 -11 s 11 4.925781 11 11 z m 0 0" fill="#241f31"/>
                    <path d="m 64 4.175781 c -33.136719 0 -60 26.785157 -60 59.824219 s 26.863281 59.824219 60 59.824219 c 12.296875 0 24.273438 -3.765625 34.324219 -10.757813 c 1.164062 -0.808594 1.050781 -2.023437 -0.195313 -2.699218 c -20.925781 -11.339844 -33.128906 -28.355469 -33.128906 -46.367188 c 0 -18.007812 12.199219 -35.023438 33.117188 -46.359375 c 1.25 -0.679687 1.367187 -1.902344 0.195312 -2.714844 c -10.046875 -6.988281 -22.019531 -10.75 -34.3125 -10.75 z m 0 0" fill="url(#c)"/>
                    <path d="m 66.5625 86.332031 c -4.304688 -7.097656 -6.53125 -14.675781 -6.5625 -22.332031 c 0.046875 -7.65625 2.289062 -15.234375 6.609375 -22.328125 c -0.863281 -0.109375 -1.738281 -0.164063 -2.609375 -0.171875 c -12.425781 0 -22.5 10.074219 -22.5 22.5 s 10.074219 22.5 22.5 22.5 c 0.855469 -0.007812 1.710938 -0.0625 2.5625 -0.167969 z m 0 0" fill="url(#d)"/>
                    <path d="m 73.160156 95.140625 c -2.558594 -2.8125 -4.765625 -5.757813 -6.597656 -8.808594 c -0.851562 0.105469 -1.707031 0.160157 -2.5625 0.167969 c -12.425781 0 -22.5 -10.074219 -22.5 -22.5 s 10.074219 -22.5 22.5 -22.5 c 0.871094 0.007812 1.746094 0.0625 2.609375 0.171875 c 1.800781 -3.070313 3.980469 -6.035156 6.507813 -8.867187 c -2.960938 -0.863282 -6.03125 -1.304688 -9.117188 -1.304688 c -17.949219 0 -32.5 14.550781 -32.5 32.5 s 14.550781 32.5 32.5 32.5 c 3.101562 -0.015625 6.1875 -0.472656 9.160156 -1.363281 z m 0 0" fill="#3d3846"/>
                    <path d="m 75.160156 97.09375 c -0.6875 -0.644531 -1.351562 -1.292969 -2 -1.953125 c -2.972656 0.886719 -6.058594 1.34375 -9.160156 1.359375 c -17.949219 0 -32.5 -14.550781 -32.5 -32.5 s 14.550781 -32.5 32.5 -32.5 c 3.085938 0 6.15625 0.441406 9.117188 1.308594 c 0.636718 -0.652344 1.289062 -1.296875 1.960937 -1.929688 c -3.566406 -1.21875 -7.308594 -1.851562 -11.078125 -1.878906 c -19.328125 0 -35 15.671875 -35 35 s 15.671875 35 35 35 c 3.800781 -0.027344 7.566406 -0.667969 11.160156 -1.90625 z m 0 0" fill="#241f31"/>
                    <path d="m 77.15625 99.050781 c -0.683594 -0.644531 -1.347656 -1.296875 -1.996094 -1.957031 c -3.59375 1.238281 -7.359375 1.878906 -11.160156 1.90625 c -19.328125 0 -35 -15.671875 -35 -35 s 15.671875 -35 35 -35 c 3.769531 0.027344 7.511719 0.660156 11.078125 1.878906 c 0.644531 -0.660156 1.308594 -1.316406 1.988281 -1.957031 c -4.175781 -1.582031 -8.601562 -2.398437 -13.066406 -2.421875 c -20.710938 0 -37.5 16.789062 -37.5 37.5 s 16.789062 37.5 37.5 37.5 c 4.496094 -0.019531 8.953125 -0.851562 13.15625 -2.449219 z m 0 0" fill="#3d3846"/>
                    <path d="m 79.164062 101.011719 c -0.6875 -0.644531 -1.355468 -1.300781 -2.007812 -1.960938 c -4.203125 1.597657 -8.660156 2.429688 -13.15625 2.449219 c -20.710938 0 -37.5 -16.789062 -37.5 -37.5 s 16.789062 -37.5 37.5 -37.5 c 4.464844 0.023438 8.890625 0.839844 13.066406 2.421875 c 0.699219 -0.644531 1.417969 -1.28125 2.152344 -1.90625 c -4.824219 -1.988281 -9.996094 -3.011719 -15.21875 -3.015625 c -22.089844 0 -40 17.910156 -40 40 s 17.910156 40 40 40 c 5.203125 0 10.351562 -1.015625 15.164062 -2.988281 z m 0 0" fill="#241f31"/>
                    <path d="m 81.347656 102.800781 c -0.746094 -0.585937 -1.472656 -1.183593 -2.183594 -1.789062 c -4.8125 1.972656 -9.960937 2.988281 -15.164062 2.988281 c -22.089844 0 -40 -17.910156 -40 -40 s 17.910156 -40 40 -40 c 5.222656 0.003906 10.394531 1.027344 15.21875 3.015625 c 0.703125 -0.585937 1.421875 -1.164063 2.15625 -1.730469 c -5.457031 -2.472656 -11.378906 -3.761718 -17.375 -3.785156 c -23.472656 0 -42.5 19.027344 -42.5 42.5 s 19.027344 42.5 42.5 42.5 c 5.976562 0 11.890625 -1.261719 17.347656 -3.699219 z m 0 0" fill="#3d3846"/>
                    <path d="m 83.601562 104.507812 c -0.765624 -0.5625 -1.519531 -1.128906 -2.253906 -1.707031 c -5.457031 2.4375 -11.371094 3.699219 -17.347656 3.699219 c -23.472656 0 -42.5 -19.027344 -42.5 -42.5 s 19.027344 -42.5 42.5 -42.5 c 5.996094 0.023438 11.917969 1.3125 17.375 3.785156 c 0.726562 -0.609375 1.46875 -1.203125 2.226562 -1.789062 c -6.109374 -2.960938 -12.8125 -4.496094 -19.601562 -4.496094 c -24.851562 0 -45 20.148438 -45 45 s 20.148438 45 45 45 c 6.789062 0 13.492188 -1.535156 19.601562 -4.492188 z m 0 0" fill="#241f31"/>
                    <path d="m 85.890625 106.054688 c -0.777344 -0.507813 -1.539063 -1.023438 -2.289063 -1.546876 c -6.109374 2.957032 -12.8125 4.492188 -19.601562 4.492188 c -24.851562 0 -45 -20.148438 -45 -45 s 20.148438 -45 45 -45 c 6.789062 0 13.492188 1.535156 19.601562 4.496094 c 0.761719 -0.554688 1.535157 -1.097656 2.324219 -1.632813 c -6.769531 -3.523437 -14.292969 -5.363281 -21.925781 -5.363281 c -26.234375 0 -47.5 21.265625 -47.5 47.5 s 21.265625 47.5 47.5 47.5 c 7.628906 -0.03125 15.136719 -1.898438 21.890625 -5.445312 z m 0 0" fill="#3d3846"/>
                    <path d="m 88.265625 107.664062 c -0.804687 -0.527343 -1.597656 -1.066406 -2.375 -1.609374 c -6.753906 3.546874 -14.261719 5.414062 -21.890625 5.445312 c -26.234375 0 -47.5 -21.265625 -47.5 -47.5 s 21.265625 -47.5 47.5 -47.5 c 7.632812 0 15.15625 1.839844 21.925781 5.363281 c 0.78125 -0.527343 1.578125 -1.046875 2.386719 -1.550781 c -7.433594 -4.140625 -15.800781 -6.3125 -24.3125 -6.3125 c -27.613281 0 -50 22.386719 -50 50 s 22.386719 50 50 50 c 8.496094 -0.015625 16.847656 -2.199219 24.265625 -6.335938 z m 0 0" fill="#241f31"/>
                    <path d="m 90.765625 109.121094 c -0.84375 -0.476563 -1.679687 -0.960938 -2.5 -1.457032 c -7.417969 4.136719 -15.769531 6.320313 -24.265625 6.335938 c -27.613281 0 -50 -22.386719 -50 -50 s 22.386719 -50 50 -50 c 8.511719 0 16.878906 2.171875 24.3125 6.3125 c 0.828125 -0.476562 1.667969 -0.9375 2.515625 -1.390625 c -8.109375 -4.84375 -17.378906 -7.40625 -26.828125 -7.421875 c -28.996094 0 -52.5 23.503906 -52.5 52.5 s 23.503906 52.5 52.5 52.5 c 9.421875 -0.011719 18.667969 -2.5625 26.765625 -7.378906 z m 0 0" fill="#3d3846"/>
                    <path d="m 93.257812 110.574219 c -0.84375 -0.476563 -1.671874 -0.960938 -2.492187 -1.453125 c -8.097656 4.816406 -17.34375 7.367187 -26.765625 7.378906 c -28.996094 0 -52.5 -23.503906 -52.5 -52.5 s 23.503906 -52.5 52.5 -52.5 c 9.449219 0.015625 18.71875 2.578125 26.828125 7.421875 c 0.808594 -0.464844 1.628906 -0.917969 2.457031 -1.359375 c -8.757812 -5.558594 -18.910156 -8.527344 -29.285156 -8.5625 c -30.375 0 -55 24.625 -55 55 s 24.625 55 55 55 c 10.351562 0 20.492188 -2.921875 29.257812 -8.425781 z m 0 0" fill="#241f31"/>
                    <path d="m 95.804688 111.902344 c -0.859376 -0.433594 -1.710938 -0.875 -2.546876 -1.328125 c -8.765624 5.503906 -18.90625 8.425781 -29.257812 8.425781 c -30.375 0 -55 -24.625 -55 -55 s 24.625 -55 55 -55 c 10.375 0.035156 20.527344 3.003906 29.285156 8.5625 c 0.808594 -0.460938 1.628906 -0.914062 2.457032 -1.355469 c -9.394532 -6.289062 -20.4375 -9.664062 -31.742188 -9.707031 c -31.757812 0 -57.5 25.742188 -57.5 57.5 s 25.742188 57.5 57.5 57.5 c 11.316406 0 22.378906 -3.339844 31.804688 -9.597656 z m 0 0" fill="#3d3846"/>
                    <path d="m 64 4 c -33.136719 0 -60 26.863281 -60 60 s 26.863281 60 60 60 c 12.316406 -0.039062 24.320312 -3.871094 34.382812 -10.964844 c -0.867187 -0.367187 -1.726562 -0.746094 -2.578124 -1.132812 c -9.425782 6.257812 -20.488282 9.597656 -31.804688 9.597656 c -31.757812 0 -57.5 -25.742188 -57.5 -57.5 s 25.742188 -57.5 57.5 -57.5 c 11.304688 0.042969 22.347656 3.417969 31.742188 9.707031 c 0.855468 -0.433593 1.722656 -0.855469 2.597656 -1.269531 c -10.054688 -7.078125 -22.042969 -10.898438 -34.339844 -10.9375 z m 0 0" fill="#241f31"/>
                </g>
            </g>
        </g>
    </mask>
    <mask id="h">
        <g filter="url(#a)">
            <rect fill-opacity="0.8" height="184.32" width="184.32" x="-28.16" y="-28.16"/>
        </g>
    </mask>
    <linearGradient id="i" gradientTransform="matrix(0 0.37 -0.98462 0 295.38501 -30.360001)" gradientUnits="userSpaceOnUse" x1="300" x2="428" y1="235" y2="235">
        <stop offset="0" stop-color="#f9f06b"/>
        <stop offset="1" stop-color="#f5c211"/>
    </linearGradient>
    <clipPath id="j">
        <rect height="128" width="128"/>
    </clipPath>
    <clipPath id="k">
        <rect height="128" width="128"/>
    </clipPath>
    <path d="m 117.535156 64 c 0 27.613281 -22.386718 50 -50 50 c -27.613281 0 -50 -22.386719 -50 -50 s 22.386719 -50 50 -50 c 27.613282 0 50 22.386719 50 50 z m 0 0" fill="url(#b)"/>
    <path d="m 110.003906 37.609375 l -7.148437 4.128906 l -39.429688 22.761719 l 39.429688 22.761719 l 6.683593 3.859375 c 5.21875 -8.082032 7.996094 -17.5 7.996094 -27.121094 c 0 -9.328125 -2.609375 -18.46875 -7.53125 -26.390625 z m 0 0" fill="#62a0ea" fill-opacity="0.301961"/>
    <path d="m 74 64 c 0 6.074219 -4.925781 11 -11 11 s -11 -4.925781 -11 -11 s 4.925781 -11 11 -11 s 11 4.925781 11 11 z m 0 0" fill="#241f31"/>
    <path d="m 64 4.175781 c -33.136719 0 -60 26.785157 -60 59.824219 s 26.863281 59.824219 60 59.824219 c 12.296875 0 24.273438 -3.765625 34.324219 -10.757813 c 1.164062 -0.808594 1.050781 -2.023437 -0.195313 -2.699218 c -20.925781 -11.339844 -33.128906 -28.355469 -33.128906 -46.367188 c 0 -18.007812 12.199219 -35.023438 33.117188 -46.359375 c 1.25 -0.679687 1.367187 -1.902344 0.195312 -2.714844 c -10.046875 -6.988281 -22.019531 -10.75 -34.3125 -10.75 z m 0 0" fill="url(#c)"/>
    <path d="m 66.5625 86.332031 c -4.304688 -7.097656 -6.53125 -14.675781 -6.5625 -22.332031 c 0.046875 -7.65625 2.289062 -15.234375 6.609375 -22.328125 c -0.863281 -0.109375 -1.738281 -0.164063 -2.609375 -0.171875 c -12.425781 0 -22.5 10.074219 -22.5 22.5 s 10.074219 22.5 22.5 22.5 c 0.855469 -0.007812 1.710938 -0.0625 2.5625 -0.167969 z m 0 0" fill="url(#d)"/>
    <path d="m 73.160156 95.140625 c -2.558594 -2.8125 -4.765625 -5.757813 -6.597656 -8.808594 c -0.851562 0.105469 -1.707031 0.160157 -2.5625 0.167969 c -12.425781 0 -22.5 -10.074219 -22.5 -22.5 s 10.074219 -22.5 22.5 -22.5 c 0.871094 0.007812 1.746094 0.0625 2.609375 0.171875 c 1.800781 -3.070313 3.980469 -6.035156 6.507813 -8.867187 c -2.960938 -0.863282 -6.03125 -1.304688 -9.117188 -1.304688 c -17.949219 0 -32.5 14.550781 -32.5 32.5 s 14.550781 32.5 32.5 32.5 c 3.101562 -0.015625 6.1875 -0.472656 9.160156 -1.363281 z m 0 0" fill="#3d3846"/>
    <path d="m 75.160156 97.09375 c -0.6875 -0.644531 -1.351562 -1.292969 -2 -1.953125 c -2.972656 0.886719 -6.058594 1.34375 -9.160156 1.359375 c -17.949219 0 -32.5 -14.550781 -32.5 -32.5 s 14.550781 -32.5 32.5 -32.5 c 3.085938 0 6.15625 0.441406 9.117188 1.308594 c 0.636718 -0.652344 1.289062 -1.296875 1.960937 -1.929688 c -3.566406 -1.21875 -7.308594 -1.851562 -11.078125 -1.878906 c -19.328125 0 -35 15.671875 -35 35 s 15.671875 35 35 35 c 3.800781 -0.027344 7.566406 -0.667969 11.160156 -1.90625 z m 0 0" fill="#241f31"/>
    <path d="m 77.15625 99.050781 c -0.683594 -0.644531 -1.347656 -1.296875 -1.996094 -1.957031 c -3.59375 1.238281 -7.359375 1.878906 -11.160156 1.90625 c -19.328125 0 -35 -15.671875 -35 -35 s 15.671875 -35 35 -35 c 3.769531 0.027344 7.511719 0.660156 11.078125 1.878906 c 0.644531 -0.660156 1.308594 -1.316406 1.988281 -1.957031 c -4.175781 -1.582031 -8.601562 -2.398437 -13.066406 -2.421875 c -20.710938 0 -37.5 16.789062 -37.5 37.5 s 16.789062 37.5 37.5 37.5 c 4.496094 -0.019531 8.953125 -0.851562 13.15625 -2.449219 z m 0 0" fill="#3d3846"/>
    <path d="m 79.164062 101.011719 c -0.6875 -0.644531 -1.355468 -1.300781 -2.007812 -1.960938 c -4.203125 1.597657 -8.660156 2.429688 -13.15625 2.449219 c -20.710938 0 -37.5 -16.789062 -37.5 -37.5 s 16.789062 -37.5 37.5 -37.5 c 4.464844 0.023438 8.890625 0.839844 13.066406 2.421875 c 0.699219 -0.644531 1.417969 -1.28125 2.152344 -1.90625 c -4.824219 -1.988281 -9.996094 -3.011719 -15.21875 -3.015625 c -22.089844 0 -40 17.910156 -40 40 s 17.910156 40 40 40 c 5.203125 0 10.351562 -1.015625 15.164062 -2.988281 z m 0 0" fill="#241f31"/>
    <path d="m 81.347656 102.800781 c -0.746094 -0.585937 -1.472656 -1.183593 -2.183594 -1.789062 c -4.8125 1.972656 -9.960937 2.988281 -15.164062 2.988281 c -22.089844 0 -40 -17.910156 -40 -40 s 17.910156 -40 40 -40 c 5.222656 0.003906 10.394531 1.027344 15.21875 3.015625 c 0.703125 -0.585937 1.421875 -1.164063 2.15625 -1.730469 c -5.457031 -2.472656 -11.378906 -3.761718 -17.375 -3.785156 c -23.472656 0 -42.5 19.027344 -42.5 42.5 s 19.027344 42.5 42.5 42.5 c 5.976562 0 11.890625 -1.261719 17.347656 -3.699219 z m 0 0" fill="#3d3846"/>
    <path d="m 83.601562 104.507812 c -0.765624 -0.5625 -1.519531 -1.128906 -2.253906 -1.707031 c -5.457031 2.4375 -11.371094 3.699219 -17.347656 3.699219 c -23.472656 0 -42.5 -19.027344 -42.5 -42.5 s 19.027344 -42.5 42.5 -42.5 c 5.996094 0.023438 11.917969 1.3125 17.375 3.785156 c 0.726562 -0.609375 1.46875 -1.203125 2.226562 -1.789062 c -6.109374 -2.960938 -12.8125 -4.496094 -19.601562 -4.496094 c -24.851562 0 -45 20.148438 -45 45 s 20.148438 45 45 45 c 6.789062 0 13.492188 -1.535156 19.601562 -4.492188 z m 0 0" fill="#241f31"/>
    <path d="m 85.890625 106.054688 c -0.777344 -0.507813 -1.539063 -1.023438 -2.289063 -1.546876 c -6.109374 2.957032 -12.8125 4.492188 -19.601562 4.492188 c -24.851562 0 -45 -20.148438 -45 -45 s 20.148438 -45 45 -45 c 6.789062 0 13.492188 1.535156 19.601562 4.496094 c 0.761719 -0.554688 1.535157 -1.097656 2.324219 -1.632813 c -6.769531 -3.523437 -14.292969 -5.363281 -21.925781 -5.363281 c -26.234375 0 -47.5 21.265625 -47.5 47.5 s 21.265625 47.5 47.5 47.5 c 7.628906 -0.03125 15.136719 -1.898438 21.890625 -5.445312 z m 0 0" fill="#3d3846"/>
    <path d="m 88.265625 107.664062 c -0.804687 -0.527343 -1.597656 -1.066406 -2.375 -1.609374 c -6.753906 3.546874 -14.261719 5.414062 -21.890625 5.445312 c -26.234375 0 -47.5 -21.265625 -47.5 -47.5 s 21.265625 -47.5 47.5 -47.5 c 7.632812 0 15.15625 1.839844 21.925781 5.363281 c 0.78125 -0.527343 1.578125 -1.046875 2.386719 -1.550781 c -7.433594 -4.140625 -15.800781 -6.3125 -24.3125 -6.3125 c -27.613281 0 -50 22.386719 -50 50 s 22.386719 50 50 50 c 8.496094 -0.015625 16.847656 -2.199219 24.265625 -6.335938 z m 0 0" fill="#241f31"/>
    <path d="m 90.765625 109.121094 c -0.84375 -0.476563 -1.679687 -0.960938 -2.5 -1.457032 c -7.417969 4.136719 -15.769531 6.320313 -24.265625 6.335938 c -27.613281 0 -50 -22.386719 -50 -50 s 22.386719 -50 50 -50 c 8.511719 0 16.878906 2.171875 24.3125 6.3125 c 0.828125 -0.476562 1.667969 -0.9375 2.515625 -1.390625 c -8.109375 -4.84375 -17.378906 -7.40625 -26.828125 -7.421875 c -28.996094 0 -52.5 23.503906 -52.5 52.5 s 23.503906 52.5 52.5 52.5 c 9.421875 -0.011719 18.667969 -2.5625 26.765625 -7.378906 z m 0 0" fill="#3d3846"/>
    <path d="m 93.257812 110.574219 c -0.84375 -0.476563 -1.671874 -0.960938 -2.492187 -1.453125 c -8.097656 4.816406 -17.34375 7.367187 -26.765625 7.378906 c -28.996094 0 -52.5 -23.503906 -52.5 -52.5 s 23.503906 -52.5 52.5 -52.5 c 9.449219 0.015625 18.71875 2.578125 26.828125 7.421875 c 0.808594 -0.464844 1.628906 -0.917969 2.457031 -1.359375 c -8.757812 -5.558594 -18.910156 -8.527344 -29.285156 -8.5625 c -30.375 0 -55 24.625 -55 55 s 24.625 55 55 55 c 10.351562 0 20.492188 -2.921875 29.257812 -8.425781 z m 0 0" fill="#241f31"/>
    <path d="m 95.804688 111.902344 c -0.859376 -0.433594 -1.710938 -0.875 -2.546876 -1.328125 c -8.765624 5.503906 -18.90625 8.425781 -29.257812 8.425781 c -30.375 0 -55 -24.625 -55 -55 s 24.625 -55 55 -55 c 10.375 0.035156 20.527344 3.003906 29.285156 8.5625 c 0.808594 -0.460938 1.628906 -0.914062 2.457032 -1.355469 c -9.394532 -6.289062 -20.4375 -9.664062 -31.742188 -9.707031 c -31.757812 0 -57.5 25.742188 -57.5 57.5 s 25.742188 57.5 57.5 57.5 c 11.316406 0 22.378906 -3.339844 31.804688 -9.597656 z m 0 0" fill="#3d3846"/>
    <path d="m 64 4 c -33.136719 0 -60 26.863281 -60 60 s 26.863281 60 60 60 c 12.316406 -0.039062 24.320312 -3.871094 34.382812 -10.964844 c -0.867187 -0.367187 -1.726562 -0.746094 -2.578124 -1.132812 c -9.425782 6.257812 -20.488282 9.597656 -31.804688 9.597656 c -31.757812 0 -57.5 -25.742188 -57.5 -57.5 s 25.742188 -57.5 57.5 -57.5 c 11.304688 0.042969 22.347656 3.417969 31.742188 9.707031 c 0.855468 -0.433593 1.722656 -0.855469 2.597656 -1.269531 c -10.054688 -7.078125 -22.042969 -10.898438 -34.339844 -10.9375 z m 0 0" fill="#241f31"/>
    <g mask="url(#g)">
        <g clip-path="url(#k)">
            <g mask="url(#h)">
                <g clip-path="url(#j)">
                    <path d="m 128 80.640625 v 47.359375 h -128 v -47.359375 z m 0 0" fill="url(#i)"/>
                    <path d="m 13.308594 80.640625 l 47.355468 47.359375 h 21.214844 l -47.359375 -47.359375 z m 42.421875 0 l 47.363281 47.359375 h 21.214844 l -47.363282 -47.359375 z m 42.429687 0 l 29.839844 29.839844 v -21.210938 l -8.628906 -8.628906 z m -98.160156 7.90625 v 21.214844 l 18.238281 18.238281 h 21.214844 z m 0 0"/>
                </g>
            </g>
        </g>
    </g>
</svg>
